# xmcd CD database file
# Copyright (C) 1993-1996 Ti Kan
#
# Track frame offsets:
#	183
#	31983
#	54683
#	72858
#	90183
#	113358
#	134808
#	152808
#	165033
#	179958
#	216633
#	248508
#	262883
#	282783
#	299333
#
# Disc length: 4186 seconds
#
# Revision: 1
# Processed by: cddbd v1.5.2PL0 Copyright (c) Steve Scherf et al.
# Submitted via: CDValet v3.30 - Copyright (c) 1997 Greg Leichner
#
DISCID=d510580f
DTITLE=Cuby and Blizzards - Simple Man/Sometimes
DYEAR=1971
DGENRE=Blues
TTITLE0=Simple Man
TTITLE1=The Faker
TTITLE2=When I'm Honest
TTITLE3=Back Street
TTITLE4=Seasons Come And Seasons Go
TTITLE5=Gave You My Word
TTITLE6=Easy To Leave, Hard To Forget
TTITLE7=Pawn Broker
TTITLE8=Straight, No Chaser
TTITLE9=The Way I Feel
TTITLE10=I'm Drinking My Whisky
TTITLE11=Everytime
TTITLE12=Boston
TTITLE13=Sometimes
TTITLE14=Simply Jamming
EXTD=Harry "Cuby" Muskee: Vocals, Harmonica\nEelco Gelling: Ele
EXTD=ctric and Acoustic Guitar\nHelmig Van Der Vegt: Organ, Piano
EXTD=, Spinet, Tambourine\nHerman Deinum: Bass and Rythm Guitar\n
EXTD=Hans Lafaille: Drums\n
EXTT0=
EXTT1=
EXTT2=
EXTT3=
EXTT4=
EXTT5=
EXTT6=
EXTT7=
EXTT8=
EXTT9=
EXTT10=
EXTT11=
EXTT12=
EXTT13=
EXTT14=
PLAYORDER=
